<?xml version="1.0" encoding="utf-8"?>
<!-- Generator: Adobe Illustrator 23.0.1, SVG Export Plug-In . SVG Version: 6.00 Build 0)  -->
<svg version="1.1"
	 id="Livello_1" xmlns:cc="http://creativecommons.org/ns#" xmlns:dc="http://purl.org/dc/elements/1.1/" xmlns:rdf="http://www.w3.org/1999/02/22-rdf-syntax-ns#"
	 xmlns="http://www.w3.org/2000/svg" xmlns:xlink="http://www.w3.org/1999/xlink" x="0px" y="0px" width="148.102px"
	 height="72.69px" viewBox="0 0 148.102 72.69" enable-background="new 0 0 148.102 72.69" xml:space="preserve">
<g>
	<polygon points="20.171,2.426 3.109,70.264 65.164,70.264 82.23,2.426 	"/>
	<polygon points="1.553,71.478 19.224,1.214 146.547,1.214 128.882,71.478 	"/>
	<path fill="#FFFFFF" d="M20.171,2.426h124.823l-17.056,67.84H3.111L20.171,2.426z M18.28,0l-0.462,1.834l-17.06,67.84L0,72.69
		h3.111h124.827h1.89l0.462-1.834l17.054-67.838L148.102,0H18.28z"/>
	<polygon fill="#FF0000" points="82.51,2.426 81.212,2.426 64.142,70.264 127.935,70.264 144.991,2.426 	"/>
	<path fill="#FFFFFF" d="M131.368,39.218c-0.525,2.771-1.106,4.365-2.019,6.198c-1.711,3.418-5.163,5.284-10.023,5.935
		c-1.905,0.242-4.451,0.169-4.451,0.169l10.162,14.436h-15.077l-14.11-20.089c0,0,12.289-0.038,13.564-0.038
		c2.948,0,6.833-0.862,7.918-2.887c0.327-0.607,0.801-1.65,0.813-2.74c0.006-1.368-1.315-2.514-3.566-2.514
		c-2.257,0-22.11-0.019-22.11-0.019l-6.993,27.899H71.214l8.957-34.761c0,0,33.813-0.006,40.845-0.006
		C128.66,30.801,132.247,34.651,131.368,39.218"/>
	<path fill="#FFFFFF" d="M66.159,45.183L42.666,45.2l-2.211,6.594h11.678l-1.905,6.373H31.412c-4.103,0-5.825-0.999-5.41-3.884
		c0.464-3.271,1.686-6.038,2.795-9.071c2.266-6.133,5.534-7.688,19.138-7.688c7.22,0,20.375,0.004,20.375,0.004l2.156-6.904
		c0,0-19.42-0.006-24.476-0.006c-19.939,0-26.763,2.333-30.58,12.086c-1.286,3.313-3.222,9.42-4.082,14.449
		c-1.022,5.933,3.566,8.249,8.449,8.415c6.746,0.226,40.626,0.116,40.626,0.116L66.159,45.183z"/>
</g>
</svg>
